<svg version="1.1" id="Layer_1" xmlns="http://www.w3.org/2000/svg" xmlns:xlink="http://www.w3.org/1999/xlink" x="0px" y="0px" width="306" viewBox="0 0 306 1354" enable-background="new 0 0 306 1354" xml:space="preserve" height="1354">
<path fill="#000000" opacity="1.000000" stroke="none" d="
M1.000000,442.000000 
	C1.000000,294.666656 1.000000,147.833328 1.000000,1.000000 
	C103.000000,1.000000 205.000000,1.000000 307.000000,1.000000 
	C307.000000,452.333344 307.000000,903.666687 307.000000,1355.000000 
	C205.000000,1355.000000 103.000000,1355.000000 1.000000,1355.000000 
	C1.000000,1050.833374 1.000000,746.666687 1.000000,442.000000 
M150.004623,408.983978 
	C150.004623,408.983978 150.086670,408.932037 149.719971,408.211975 
	C146.827377,407.769684 143.934769,407.327393 140.724152,406.211823 
	C134.108139,404.166290 128.382385,401.144958 124.323128,395.009705 
	C119.516281,387.744476 118.849464,379.573334 118.122742,371.456573 
	C117.522240,364.749603 118.000023,357.946075 118.000023,350.001160 
	C106.862373,350.001160 96.303619,350.007721 85.744888,349.991791 
	C84.586731,349.990051 83.285728,349.491241 82.303650,349.872986 
	C80.758972,350.473389 78.234322,351.572266 78.189888,352.553619 
	C77.641815,364.658508 78.000320,376.697144 83.426926,387.944916 
	C87.703041,396.808136 94.509399,403.373901 103.808983,409.257935 
	C95.332497,409.257935 88.234070,409.257935 79.999977,409.257935 
	C79.999977,420.481995 79.994514,431.374176 80.001976,442.266357 
	C80.006592,448.998016 80.015419,448.999481 86.425621,448.999725 
	C107.074425,449.000458 127.723236,449.000000 148.372040,449.000000 
	C155.504196,449.000000 162.636353,449.000000 170.988937,449.000000 
	C170.988937,436.583344 171.059708,424.537476 170.925873,412.493927 
	C170.900787,410.237183 169.722107,408.612061 166.837265,408.953430 
	C162.615112,409.453064 158.355560,409.636688 153.789139,409.271667 
	C152.545395,409.148712 151.301651,409.025757 150.004623,408.983978 
M92.256355,1041.199341 
	C89.168449,1046.030762 85.490082,1050.589844 83.111984,1055.748535 
	C77.676956,1067.538208 78.198219,1080.031616 79.971123,1092.577637 
	C82.087738,1107.556030 88.690933,1119.883057 101.206909,1129.760254 
	C101.353859,1129.999878 101.500816,1130.239380 101.647766,1130.479004 
	C101.231766,1130.652588 100.815903,1130.977661 100.399742,1130.978149 
	C74.512787,1131.002197 48.625813,1130.999634 22.166636,1130.999634 
	C22.166636,1132.521118 22.166636,1134.260742 22.011116,1136.854614 
	C21.674080,1138.750244 21.044001,1140.645630 21.042456,1142.541504 
	C20.991177,1205.478271 21.030403,1268.415161 20.926277,1331.351807 
	C20.919868,1335.225342 22.318829,1336.150513 25.896950,1336.067261 
	C34.716648,1335.862061 43.544327,1336.000488 52.368797,1335.999878 
	C58.998039,1335.999512 58.999695,1335.998779 58.999752,1329.591187 
	C59.000221,1277.809937 58.999596,1226.028564 59.000538,1174.247314 
	C59.000656,1167.852051 59.770924,1167.454590 66.293503,1167.932129 
	C74.175316,1168.509155 82.095901,1168.556641 90.805351,1168.987915 
	C93.873596,1166.793945 96.916351,1166.706177 100.051392,1168.929810 
	C100.468330,1169.225464 101.339302,1168.881226 102.925987,1168.988159 
	C118.950577,1168.936523 134.975159,1168.885010 151.812973,1168.988037 
	C154.054764,1168.988892 156.305344,1169.116211 158.536362,1168.961670 
	C162.127975,1168.712524 165.706696,1168.277710 169.952255,1167.322388 
	C170.226379,1166.757690 170.734192,1166.195557 170.739990,1165.628052 
	C170.850891,1154.761597 170.999878,1143.893311 170.872757,1133.028564 
	C170.851242,1131.188843 169.702454,1129.207031 166.148071,1130.011963 
	C164.257233,1129.674927 162.378586,1129.158203 160.473648,1129.028931 
	C143.481674,1127.875854 129.722641,1120.901123 119.967575,1105.881348 
	C115.145599,1098.404907 115.398941,1090.200806 116.588547,1081.888794 
	C117.938576,1072.455811 124.367729,1067.559937 132.840225,1065.802124 
	C141.077469,1064.093262 149.601517,1063.766846 158.888992,1062.988159 
	C161.592789,1062.936523 164.296585,1062.885010 167.926285,1062.988159 
	C189.675247,1062.992065 211.424240,1062.981079 233.173141,1063.019409 
	C235.837860,1063.024048 238.101608,1063.135376 238.051895,1059.302979 
	C237.905457,1048.015381 237.968613,1036.724609 238.020767,1025.435303 
	C238.034241,1022.524658 236.708954,1021.573181 233.074326,1022.011841 
	C197.633194,1022.711792 162.102737,1019.972473 126.764351,1024.132080 
	C113.730202,1025.666260 101.906754,1030.766602 92.256355,1041.199341 
M3.000644,627.044922 
	C4.209003,628.697937 5.064907,631.074341 6.692324,631.867249 
	C11.423911,634.172363 16.470299,635.828552 21.383007,637.765137 
	C45.062748,647.099548 68.721619,656.487183 92.421616,665.769775 
	C116.414001,675.166931 140.445282,684.464844 164.460663,693.803406 
	C188.469299,703.139282 212.479309,712.471680 236.880646,721.958008 
	C237.228378,721.059265 237.941544,720.067200 237.947769,719.070679 
	C238.024765,706.744385 238.056168,694.416748 237.895325,682.092041 
	C237.881744,681.052185 236.616760,679.540100 235.568512,679.082336 
	C229.112137,676.262512 222.559860,673.660522 216.023056,671.026917 
	C194.501129,662.356140 172.947021,653.764587 151.452805,645.025757 
	C128.632614,635.747803 105.859756,626.353210 83.079605,616.977051 
	C68.564064,611.002502 54.076061,604.960999 39.569588,598.964294 
	C29.067371,594.622864 18.497337,590.438782 8.074756,585.914551 
	C3.675424,584.004883 2.932732,585.750000 2.964132,589.647217 
	C3.062099,601.806580 3.000554,613.967285 3.000644,627.044922 
M47.963982,818.549927 
	C62.082352,812.458313 76.141411,806.224487 90.332199,800.306519 
	C115.138596,789.961609 139.939224,779.590088 164.952194,769.764160 
	C169.987778,767.786072 170.921707,764.694641 170.965378,760.451477 
	C171.071671,750.123962 171.065704,739.793823 170.940399,729.466736 
	C170.917419,727.571655 170.118683,725.685974 169.585510,723.399170 
	C125.575760,741.098206 82.413353,758.456421 39.000031,775.915527 
	C39.000031,769.926331 39.000038,764.430542 39.000034,758.934753 
	C39.000023,743.775024 38.961231,728.615112 39.027962,713.455688 
	C39.044132,709.783020 38.171978,707.747070 33.786949,707.906982 
	C25.135763,708.222595 16.460955,708.153381 7.804133,707.927856 
	C4.107384,707.831543 2.917744,708.989685 2.928552,712.745972 
	C3.043596,752.727356 2.993231,792.709106 3.028609,832.690796 
	C3.029823,834.062805 3.453182,835.434448 3.710317,836.991150 
	C8.530542,834.987671 12.815930,833.198059 17.107965,831.424500 
	C27.167423,827.267578 37.230076,823.118469 47.963982,818.549927 
M89.979668,238.532181 
	C66.345695,274.336090 80.524445,320.528992 113.870392,337.235657 
	C120.813721,326.215698 127.786026,315.149750 134.514465,304.470825 
	C130.421890,301.365204 126.801628,299.329498 124.096642,296.437653 
	C114.303215,285.967651 112.584694,272.853546 115.314590,259.781311 
	C120.730904,233.845154 143.216293,225.421890 165.343567,228.425095 
	C170.590683,229.137268 170.972076,227.471573 170.987961,223.729355 
	C171.025406,214.899048 171.070160,206.067642 170.964157,197.238449 
	C170.923920,193.888336 170.478058,190.543076 170.201874,187.000565 
	C141.196259,187.000565 112.890114,187.025223 84.584145,186.964020 
	C81.618744,186.957611 80.945633,188.333435 80.965378,190.966064 
	C81.047821,201.961868 81.072823,212.959442 80.952591,223.954544 
	C80.919617,226.970032 81.939217,228.156036 85.006371,228.046234 
	C89.861420,227.872375 94.727249,227.999878 99.204636,227.999878 
	C96.200439,231.448425 93.346741,234.724197 89.979668,238.532181 
M128.500000,1231.000000 
	C115.840225,1231.000000 103.179100,1231.102295 90.521561,1230.933838 
	C87.015160,1230.887207 85.874245,1232.028809 85.934013,1235.528076 
	C86.116035,1246.185791 86.120819,1256.850830 85.932007,1267.508179 
	C85.869164,1271.055298 87.103325,1272.066528 90.557167,1272.060059 
	C138.197617,1271.970947 185.838379,1271.969604 233.478821,1272.062256 
	C236.979797,1272.069092 238.128693,1270.972412 238.066025,1267.472168 
	C237.881149,1257.147827 237.784164,1246.811401 238.100449,1236.493408 
	C238.237381,1232.026001 236.796204,1230.886353 232.443298,1230.907471 
	C198.129532,1231.074097 163.814575,1231.000000 128.500000,1231.000000 
M82.355843,571.882385 
	C84.575226,576.992493 86.794601,582.102539 89.247116,587.749451 
	C98.136665,581.481201 106.468361,575.695740 114.643044,569.696472 
	C115.416000,569.129211 115.827698,566.893127 115.352402,565.981995 
	C110.084816,555.883850 110.713074,545.448181 112.969879,534.783813 
	C115.438248,523.119690 128.877350,512.611267 142.048782,513.365112 
	C142.048782,524.450867 141.939529,535.566895 142.214142,546.673523 
	C142.242294,547.811401 144.524933,549.785156 145.836075,549.849548 
	C152.485992,550.175903 159.170502,549.780762 165.822723,550.082642 
	C169.784103,550.262390 171.157959,548.624451 171.003967,545.004700 
	C170.975647,544.339355 171.000000,543.671692 171.000000,543.005127 
	C171.000000,522.340759 171.001816,501.676392 170.998993,481.012024 
	C170.998047,474.000366 170.989670,473.870117 163.844650,474.037262 
	C156.925018,474.199097 150.015335,474.750214 143.096313,474.982605 
	C130.593964,475.402527 119.126259,479.865051 109.204666,486.637726 
	C89.169167,500.314301 80.035294,520.632446 79.212524,544.431091 
	C78.906517,553.282654 81.016327,562.217773 82.355843,571.882385 
M111.000038,98.424568 
	C112.317848,90.384033 111.701248,81.801811 117.040398,74.847694 
	C123.256088,66.751900 131.439499,62.412170 142.613678,61.994556 
	C142.613678,74.612892 142.613678,86.624992 142.613678,98.788803 
	C152.160980,98.788803 160.902023,98.788803 169.907898,98.788803 
	C170.278259,91.218819 170.977737,83.840508 170.930527,76.466965 
	C170.827682,60.411274 169.791443,44.339603 170.325180,28.314045 
	C170.504944,22.917065 168.532837,22.834257 165.033554,23.037107 
	C155.373917,23.597067 145.657379,23.833223 136.086502,25.116282 
	C120.673721,27.182501 107.490028,34.435101 97.147179,45.824879 
	C84.960541,59.245075 79.687729,75.831284 79.147301,93.733047 
	C78.927071,101.028198 79.595657,108.544022 81.223907,115.646744 
	C82.860962,122.787895 86.194008,129.540253 88.904587,136.785660 
	C97.890625,130.613190 105.810249,125.350647 113.466415,119.729286 
	C114.659973,118.852943 115.384735,116.192879 115.065689,114.612045 
	C114.024651,109.453720 112.400200,104.413139 111.000038,98.424568 
M101.968018,960.539612 
	C105.902992,957.700806 109.702103,954.640381 113.827507,952.112366 
	C116.049217,950.750916 116.168083,949.788025 115.254555,947.485901 
	C112.140854,939.639343 110.775803,931.762512 111.751297,922.982971 
	C113.779022,904.733337 125.815483,895.373413 142.737854,894.514038 
	C142.737854,906.572205 142.737854,918.630249 142.737854,930.775757 
	C152.220612,930.775757 160.964035,930.775757 171.000000,930.775757 
	C171.000000,923.334534 171.000000,916.134094 171.000000,908.933594 
	C171.000000,893.283203 171.015518,877.632812 170.992111,861.982422 
	C170.983139,855.987976 170.002853,854.878662 164.292191,855.038818 
	C158.710953,855.195312 153.125259,855.521912 147.564957,856.030151 
	C135.143051,857.165588 123.152328,859.602478 112.214920,866.242859 
	C96.443077,875.818359 86.690323,889.673218 82.050949,907.249939 
	C79.248848,917.865845 78.333809,928.603699 79.854614,939.672363 
	C81.277985,950.031677 84.495850,959.597107 89.109993,969.039490 
	C93.365097,966.235535 97.361763,963.601929 101.968018,960.539612 
M169.000000,605.499207 
	C169.000000,609.996826 168.982483,614.494568 169.004761,618.992126 
	C169.028534,623.793518 170.440460,625.109497 175.015717,623.921570 
	C181.981293,622.113037 188.987885,620.331970 195.755844,617.918762 
	C212.037109,612.113586 224.104340,601.227661 231.962646,585.907227 
	C241.126221,568.041931 243.041672,548.958740 239.942551,529.377747 
	C236.336487,506.593750 224.145264,489.982178 203.162643,479.958649 
	C200.298920,478.590637 198.801682,478.861908 197.520081,481.884064 
	C193.712051,490.863739 189.868713,499.836639 185.690536,508.646820 
	C184.158340,511.877686 185.436295,512.812134 188.021332,514.049072 
	C191.025726,515.486633 193.992020,517.169739 196.612564,519.211365 
	C203.375732,524.480225 205.324387,531.755310 206.275238,540.117004 
	C207.462509,550.557556 206.035355,560.039795 200.593781,568.857483 
	C194.176315,579.256531 184.111069,584.057861 172.496536,585.886719 
	C169.608826,586.341431 168.909531,587.433838 168.968323,590.009094 
	C169.078583,594.837402 169.000031,599.670044 169.000000,605.499207 
M192.310760,64.027710 
	C196.836533,66.872932 201.003922,70.020142 203.047455,75.277779 
	C206.518127,84.207237 207.912415,93.237617 206.067200,102.839561 
	C202.543579,121.175484 190.268784,131.039780 173.175690,133.862137 
	C169.989105,134.388290 168.895447,135.154175 168.946609,138.335510 
	C169.096573,147.660400 168.994827,156.989258 169.001892,166.316559 
	C169.006165,171.965485 170.340607,173.269196 175.837265,171.913727 
	C182.827988,170.189804 189.904053,168.507050 196.584167,165.889877 
	C212.072662,159.821655 224.135086,149.451523 231.975296,134.691589 
	C241.521149,116.720650 243.012009,97.370789 239.902161,77.685196 
	C236.332184,55.086926 223.931839,38.611359 203.540604,28.097876 
	C200.211655,26.381516 198.553177,27.075361 197.202728,30.370092 
	C194.228210,37.627190 191.183151,44.859650 187.967133,52.012348 
	C184.402954,59.939388 184.306015,59.895805 192.310760,64.027710 
M172.615845,1004.999878 
	C180.705795,1002.994690 189.142883,1001.861145 196.814697,998.805969 
	C213.686722,992.087036 226.455933,980.433777 233.964401,963.628418 
	C241.511093,946.737488 242.654053,928.999023 239.962860,910.947693 
	C236.617142,888.506348 224.661636,872.136719 204.421051,861.853394 
	C199.015839,859.107239 199.154739,859.252869 196.940048,864.655396 
	C193.539276,872.951233 190.006760,881.209229 186.090225,889.269531 
	C184.462326,892.619751 184.514313,893.742859 188.316513,895.253723 
	C197.017303,898.711121 203.241562,904.282715 205.387787,914.422852 
	C207.063934,922.342163 207.361908,930.035889 205.828796,937.668213 
	C204.162292,945.964600 199.843094,953.030518 193.054413,958.542908 
	C186.937195,963.509949 179.811249,965.499817 172.374222,967.134460 
	C171.052887,967.424805 169.180618,969.436218 169.147964,970.694153 
	C168.884460,980.849182 168.903671,991.016174 169.120270,1001.173401 
	C169.147842,1002.465881 170.811813,1003.723511 172.615845,1004.999878 
M266.976593,277.067535 
	C263.684540,288.976593 256.619171,296.902435 243.980957,299.125671 
	C243.205994,299.262024 242.102554,300.703186 242.093979,301.546814 
	C241.970947,313.654968 242.009903,325.764771 242.009903,337.998505 
	C243.689407,337.998505 244.863495,338.127258 245.995529,337.964203 
	C247.262451,337.781677 248.473434,337.225128 249.739319,337.019196 
	C270.384186,333.660309 284.744019,322.228271 292.992493,303.128815 
	C300.800934,285.048370 301.663513,266.068298 298.871582,246.958038 
	C296.675568,231.926773 289.863586,218.802673 279.271851,207.787674 
	C271.986786,200.211487 262.949158,195.321152 252.470398,190.883194 
	C248.286545,202.669800 244.087997,214.497772 239.736969,226.755325 
	C241.473373,227.556198 243.009827,228.367889 244.619400,228.990585 
	C255.145737,233.062775 262.876434,239.800049 266.045563,251.040329 
	C268.391815,259.362152 268.491241,267.742035 266.976593,277.067535 
M227.039551,243.425659 
	C226.266678,242.025085 225.320114,240.691208 224.752121,239.211975 
	C222.696350,233.857986 219.312790,234.774307 215.560562,237.117249 
	C210.101166,240.526215 204.534470,243.781586 199.261597,247.458252 
	C197.940613,248.379349 196.860886,250.668777 196.884979,252.311523 
	C196.968765,258.023834 198.030502,263.737183 197.916641,269.434052 
	C197.586075,285.973724 188.948471,296.419342 173.329468,301.204803 
	C169.941574,302.242798 168.896042,304.198700 168.947739,307.565643 
	C169.096069,317.227142 168.940475,326.893097 169.052475,336.555542 
	C169.073746,338.389191 169.774811,340.214996 170.144928,341.962830 
	C193.303436,337.683258 212.743118,328.301117 224.999817,307.716095 
	C237.336853,286.996155 237.818420,265.694183 227.039551,243.425659 
z"></path>
<path fill="#FFFFFF" opacity="1.000000" stroke="none" d="
M167.000366,1130.166748 
	C169.702454,1129.207031 170.851242,1131.188843 170.872757,1133.028564 
	C170.999878,1143.893311 170.850891,1154.761597 170.739990,1165.628052 
	C170.734192,1166.195557 170.226379,1166.757690 169.504333,1167.242920 
	C166.930908,1162.679932 164.331696,1164.357544 161.974838,1166.799927 
	C155.894989,1162.483643 154.987564,1162.673462 150.999756,1168.833374 
	C134.975159,1168.885010 118.950577,1168.936523 102.396545,1168.575806 
	C96.251991,1161.917114 92.489174,1162.129517 89.999702,1168.833374 
	C82.095901,1168.556641 74.175316,1168.509155 66.293503,1167.932129 
	C59.770924,1167.454590 59.000656,1167.852051 59.000538,1174.247314 
	C58.999596,1226.028564 59.000221,1277.809937 58.999752,1329.591187 
	C58.999695,1335.998779 58.998039,1335.999512 52.368797,1335.999878 
	C43.544327,1336.000488 34.716648,1335.862061 25.896950,1336.067261 
	C22.318829,1336.150513 20.919868,1335.225342 20.926277,1331.351807 
	C21.030403,1268.415161 20.991177,1205.478271 21.042456,1142.541504 
	C21.044001,1140.645630 21.674080,1138.750244 22.546947,1136.427246 
	C44.566780,1136.000000 66.050781,1136.000977 87.534782,1135.999268 
	C92.864090,1135.998779 98.206825,1136.189209 103.512604,1135.833008 
	C104.731239,1135.751221 106.670982,1133.822021 106.733513,1132.659912 
	C106.795708,1131.504272 105.064430,1130.039673 103.819649,1129.114258 
	C103.178291,1128.637451 101.884514,1129.038330 100.885559,1129.042480 
	C88.690933,1119.883057 82.087738,1107.556030 79.971123,1092.577637 
	C78.198219,1080.031616 77.676956,1067.538208 83.111984,1055.748535 
	C85.490082,1050.589844 89.168449,1046.030762 92.934647,1041.230103 
	C95.834183,1041.221313 98.822029,1042.106201 100.157639,1040.998657 
	C112.990578,1030.357300 128.003067,1027.827026 144.036194,1027.943359 
	C172.033890,1028.146484 200.034668,1027.913208 228.032761,1028.087402 
	C232.563354,1028.115601 234.716629,1026.878418 234.000366,1022.166687 
	C236.708954,1021.573181 238.034241,1022.524658 238.020767,1025.435303 
	C237.968613,1036.724609 237.905457,1048.015381 238.051895,1059.302979 
	C238.101608,1063.135376 235.837860,1063.024048 233.173141,1063.019409 
	C211.424240,1062.981079 189.675247,1062.992065 167.456116,1062.538818 
	C165.284470,1060.736450 163.659637,1058.506348 161.853699,1058.348511 
	C160.708450,1058.248291 159.293579,1061.232422 157.999634,1062.833496 
	C149.601517,1063.766846 141.077469,1064.093262 132.840225,1065.802124 
	C124.367729,1067.559937 117.938576,1072.455811 116.588547,1081.888794 
	C115.398941,1090.200806 115.145599,1098.404907 119.548203,1106.425537 
	C116.147911,1108.757446 116.797256,1110.662598 118.540176,1113.113525 
	C129.145401,1128.026123 144.780197,1132.897339 161.812714,1134.938965 
	C165.025467,1135.324097 167.429626,1134.101074 167.000366,1130.166748 
z"></path>
<path fill="#FFFFFF" opacity="1.000000" stroke="none" d="
M3.000747,626.586182 
	C3.000554,613.967285 3.062099,601.806580 2.964132,589.647217 
	C2.932732,585.750000 3.675424,584.004883 8.074756,585.914551 
	C18.497337,590.438782 29.067371,594.622864 39.569588,598.964294 
	C54.076061,604.960999 68.564064,611.002502 83.079605,616.977051 
	C105.859756,626.353210 128.632614,635.747803 151.452805,645.025757 
	C172.947021,653.764587 194.501129,662.356140 216.023056,671.026917 
	C222.559860,673.660522 229.112137,676.262512 235.568512,679.082336 
	C236.616760,679.540100 237.881744,681.052185 237.895325,682.092041 
	C238.056168,694.416748 238.024765,706.744385 237.947769,719.070679 
	C237.941544,720.067200 237.228378,721.059265 236.880646,721.958008 
	C212.479309,712.471680 188.469299,703.139282 164.460663,693.803406 
	C140.445282,684.464844 116.414001,675.166931 92.421616,665.769775 
	C68.721619,656.487183 45.062748,647.099548 21.383007,637.765137 
	C16.470299,635.828552 11.423911,634.172363 6.692324,631.867249 
	C5.064907,631.074341 4.209003,628.697937 3.000747,626.586182 
z"></path>
<path fill="#FFFFFF" opacity="1.000000" stroke="none" d="
M47.627712,818.758057 
	C37.230076,823.118469 27.167423,827.267578 17.107965,831.424500 
	C12.815930,833.198059 8.530542,834.987671 3.710317,836.991150 
	C3.453182,835.434448 3.029823,834.062805 3.028609,832.690796 
	C2.993231,792.709106 3.043596,752.727356 2.928552,712.745972 
	C2.917744,708.989685 4.107384,707.831543 7.804133,707.927856 
	C16.460955,708.153381 25.135763,708.222595 33.786949,707.906982 
	C38.171978,707.747070 39.044132,709.783020 39.027962,713.455688 
	C38.961231,728.615112 39.000023,743.775024 39.000034,758.934753 
	C39.000038,764.430542 39.000031,769.926331 39.000031,775.915527 
	C82.413353,758.456421 125.575760,741.098206 169.585510,723.399170 
	C170.118683,725.685974 170.917419,727.571655 170.940399,729.466736 
	C171.065704,739.793823 171.071671,750.123962 170.965378,760.451477 
	C170.921707,764.694641 169.987778,767.786072 164.952194,769.764160 
	C139.939224,779.590088 115.138596,789.961609 90.332199,800.306519 
	C76.141411,806.224487 62.082352,812.458313 47.627712,818.758057 
z"></path>
<path fill="#FFFFFF" opacity="1.000000" stroke="none" d="
M90.236359,238.266083 
	C93.346741,234.724197 96.200439,231.448425 99.204636,227.999878 
	C94.727249,227.999878 89.861420,227.872375 85.006371,228.046234 
	C81.939217,228.156036 80.919617,226.970032 80.952591,223.954544 
	C81.072823,212.959442 81.047821,201.961868 80.965378,190.966064 
	C80.945633,188.333435 81.618744,186.957611 84.584145,186.964020 
	C112.890114,187.025223 141.196259,187.000565 170.201874,187.000565 
	C170.478058,190.543076 170.923920,193.888336 170.964157,197.238449 
	C171.070160,206.067642 171.025406,214.899048 170.987961,223.729355 
	C170.972076,227.471573 170.590683,229.137268 165.343567,228.425095 
	C143.216293,225.421890 120.730904,233.845154 115.314590,259.781311 
	C112.584694,272.853546 114.303215,285.967651 124.096642,296.437653 
	C126.801628,299.329498 130.421890,301.365204 134.514465,304.470825 
	C127.786026,315.149750 120.813721,326.215698 113.870392,337.235657 
	C80.524445,320.528992 66.345695,274.336090 90.236359,238.266083 
z"></path>
<path fill="#FFFFFF" opacity="1.000000" stroke="none" d="
M129.000000,1231.000000 
	C163.814575,1231.000000 198.129532,1231.074097 232.443298,1230.907471 
	C236.796204,1230.886353 238.237381,1232.026001 238.100449,1236.493408 
	C237.784164,1246.811401 237.881149,1257.147827 238.066025,1267.472168 
	C238.128693,1270.972412 236.979797,1272.069092 233.478821,1272.062256 
	C185.838379,1271.969604 138.197617,1271.970947 90.557167,1272.060059 
	C87.103325,1272.066528 85.869164,1271.055298 85.932007,1267.508179 
	C86.120819,1256.850830 86.116035,1246.185791 85.934013,1235.528076 
	C85.874245,1232.028809 87.015160,1230.887207 90.521561,1230.933838 
	C103.179100,1231.102295 115.840225,1231.000000 129.000000,1231.000000 
z"></path>
<path fill="#FFFFFF" opacity="1.000000" stroke="none" d="
M82.190170,571.498535 
	C81.016327,562.217773 78.906517,553.282654 79.212524,544.431091 
	C80.035294,520.632446 89.169167,500.314301 109.204666,486.637726 
	C119.126259,479.865051 130.593964,475.402527 143.096313,474.982605 
	C150.015335,474.750214 156.925018,474.199097 163.844650,474.037262 
	C170.989670,473.870117 170.998047,474.000366 170.998993,481.012024 
	C171.001816,501.676392 171.000000,522.340759 171.000000,543.005127 
	C171.000000,543.671692 170.975647,544.339355 171.003967,545.004700 
	C171.157959,548.624451 169.784103,550.262390 165.822723,550.082642 
	C159.170502,549.780762 152.485992,550.175903 145.836075,549.849548 
	C144.524933,549.785156 142.242294,547.811401 142.214142,546.673523 
	C141.939529,535.566895 142.048782,524.450867 142.048782,513.365112 
	C128.877350,512.611267 115.438248,523.119690 112.969879,534.783813 
	C110.713074,545.448181 110.084816,555.883850 115.352402,565.981995 
	C115.827698,566.893127 115.416000,569.129211 114.643044,569.696472 
	C106.468361,575.695740 98.136665,581.481201 89.247116,587.749451 
	C86.794601,582.102539 84.575226,576.992493 82.190170,571.498535 
z"></path>
<path fill="#FFFFFF" opacity="1.000000" stroke="none" d="
M111.000107,98.875916 
	C112.400200,104.413139 114.024651,109.453720 115.065689,114.612045 
	C115.384735,116.192879 114.659973,118.852943 113.466415,119.729286 
	C105.810249,125.350647 97.890625,130.613190 88.904587,136.785660 
	C86.194008,129.540253 82.860962,122.787895 81.223907,115.646744 
	C79.595657,108.544022 78.927071,101.028198 79.147301,93.733047 
	C79.687729,75.831284 84.960541,59.245075 97.147179,45.824879 
	C107.490028,34.435101 120.673721,27.182501 136.086502,25.116282 
	C145.657379,23.833223 155.373917,23.597067 165.033554,23.037107 
	C168.532837,22.834257 170.504944,22.917065 170.325180,28.314045 
	C169.791443,44.339603 170.827682,60.411274 170.930527,76.466965 
	C170.977737,83.840508 170.278259,91.218819 169.907898,98.788803 
	C160.902023,98.788803 152.160980,98.788803 142.613678,98.788803 
	C142.613678,86.624992 142.613678,74.612892 142.613678,61.994556 
	C131.439499,62.412170 123.256088,66.751900 117.040398,74.847694 
	C111.701248,81.801811 112.317848,90.384033 111.000107,98.875916 
z"></path>
<path fill="#FFFFFF" opacity="1.000000" stroke="none" d="
M101.663223,960.753967 
	C97.361763,963.601929 93.365097,966.235535 89.109993,969.039490 
	C84.495850,959.597107 81.277985,950.031677 79.854614,939.672363 
	C78.333809,928.603699 79.248848,917.865845 82.050949,907.249939 
	C86.690323,889.673218 96.443077,875.818359 112.214920,866.242859 
	C123.152328,859.602478 135.143051,857.165588 147.564957,856.030151 
	C153.125259,855.521912 158.710953,855.195312 164.292191,855.038818 
	C170.002853,854.878662 170.983139,855.987976 170.992111,861.982422 
	C171.015518,877.632812 171.000000,893.283203 171.000000,908.933594 
	C171.000000,916.134094 171.000000,923.334534 171.000000,930.775757 
	C160.964035,930.775757 152.220612,930.775757 142.737854,930.775757 
	C142.737854,918.630249 142.737854,906.572205 142.737854,894.514038 
	C125.815483,895.373413 113.779022,904.733337 111.751297,922.982971 
	C110.775803,931.762512 112.140854,939.639343 115.254555,947.485901 
	C116.168083,949.788025 116.049217,950.750916 113.827507,952.112366 
	C109.702103,954.640381 105.902992,957.700806 101.663223,960.753967 
z"></path>
<path fill="#FFFFFF" opacity="1.000000" stroke="none" d="
M154.111954,409.954956 
	C158.355560,409.636688 162.615112,409.453064 166.837265,408.953430 
	C169.722107,408.612061 170.900787,410.237183 170.925873,412.493927 
	C171.059708,424.537476 170.988937,436.583344 170.988937,449.000000 
	C162.636353,449.000000 155.504196,449.000000 148.372040,449.000000 
	C127.723236,449.000000 107.074425,449.000458 86.425621,448.999725 
	C80.015419,448.999481 80.006592,448.998016 80.001976,442.266357 
	C79.994514,431.374176 79.999977,420.481995 79.999977,409.257935 
	C88.234070,409.257935 95.332497,409.257935 103.808983,409.257935 
	C94.509399,403.373901 87.703041,396.808136 83.426926,387.944916 
	C78.000320,376.697144 77.641815,364.658508 78.189888,352.553619 
	C78.234322,351.572266 80.758972,350.473389 82.303650,349.872986 
	C83.285728,349.491241 84.586731,349.990051 85.744888,349.991791 
	C96.303619,350.007721 106.862373,350.001160 118.000023,350.001160 
	C118.000023,357.946075 117.522240,364.749603 118.122742,371.456573 
	C118.849464,379.573334 119.516281,387.744476 124.323128,395.009705 
	C128.382385,401.144958 134.108139,404.166290 140.920471,406.904114 
	C143.807556,410.050903 146.528519,412.302765 150.086670,408.932037 
	C150.086670,408.932037 150.004623,408.983978 150.059753,409.286926 
	C151.447250,409.711578 152.779602,409.833282 154.111954,409.954956 
z"></path>
<path fill="#FFFFFF" opacity="1.000000" stroke="none" d="
M169.000000,605.000000 
	C169.000031,599.670044 169.078583,594.837402 168.968323,590.009094 
	C168.909531,587.433838 169.608826,586.341431 172.496536,585.886719 
	C184.111069,584.057861 194.176315,579.256531 200.593781,568.857483 
	C206.035355,560.039795 207.462509,550.557556 206.275238,540.117004 
	C205.324387,531.755310 203.375732,524.480225 196.612564,519.211365 
	C193.992020,517.169739 191.025726,515.486633 188.021332,514.049072 
	C185.436295,512.812134 184.158340,511.877686 185.690536,508.646820 
	C189.868713,499.836639 193.712051,490.863739 197.520081,481.884064 
	C198.801682,478.861908 200.298920,478.590637 203.162643,479.958649 
	C224.145264,489.982178 236.336487,506.593750 239.942551,529.377747 
	C243.041672,548.958740 241.126221,568.041931 231.962646,585.907227 
	C224.104340,601.227661 212.037109,612.113586 195.755844,617.918762 
	C188.987885,620.331970 181.981293,622.113037 175.015717,623.921570 
	C170.440460,625.109497 169.028534,623.793518 169.004761,618.992126 
	C168.982483,614.494568 169.000000,609.996826 169.000000,605.000000 
z"></path>
<path fill="#FFFFFF" opacity="1.000000" stroke="none" d="
M191.929596,63.992985 
	C184.306015,59.895805 184.402954,59.939388 187.967133,52.012348 
	C191.183151,44.859650 194.228210,37.627190 197.202728,30.370092 
	C198.553177,27.075361 200.211655,26.381516 203.540604,28.097876 
	C223.931839,38.611359 236.332184,55.086926 239.902161,77.685196 
	C243.012009,97.370789 241.521149,116.720650 231.975296,134.691589 
	C224.135086,149.451523 212.072662,159.821655 196.584167,165.889877 
	C189.904053,168.507050 182.827988,170.189804 175.837265,171.913727 
	C170.340607,173.269196 169.006165,171.965485 169.001892,166.316559 
	C168.994827,156.989258 169.096573,147.660400 168.946609,138.335510 
	C168.895447,135.154175 169.989105,134.388290 173.175690,133.862137 
	C190.268784,131.039780 202.543579,121.175484 206.067200,102.839561 
	C207.912415,93.237617 206.518127,84.207237 203.047455,75.277779 
	C201.003922,70.020142 196.836533,66.872932 191.929596,63.992985 
z"></path>
<path fill="#FFFFFF" opacity="1.000000" stroke="none" d="
M172.166763,1004.998535 
	C170.811813,1003.723511 169.147842,1002.465881 169.120270,1001.173401 
	C168.903671,991.016174 168.884460,980.849182 169.147964,970.694153 
	C169.180618,969.436218 171.052887,967.424805 172.374222,967.134460 
	C179.811249,965.499817 186.937195,963.509949 193.054413,958.542908 
	C199.843094,953.030518 204.162292,945.964600 205.828796,937.668213 
	C207.361908,930.035889 207.063934,922.342163 205.387787,914.422852 
	C203.241562,904.282715 197.017303,898.711121 188.316513,895.253723 
	C184.514313,893.742859 184.462326,892.619751 186.090225,889.269531 
	C190.006760,881.209229 193.539276,872.951233 196.940048,864.655396 
	C199.154739,859.252869 199.015839,859.107239 204.421051,861.853394 
	C224.661636,872.136719 236.617142,888.506348 239.962860,910.947693 
	C242.654053,928.999023 241.511093,946.737488 233.964401,963.628418 
	C226.455933,980.433777 213.686722,992.087036 196.814697,998.805969 
	C189.142883,1001.861145 180.705795,1002.994690 172.166763,1004.998535 
z"></path>
<path fill="#FFFFFF" opacity="1.000000" stroke="none" d="
M266.987488,276.631561 
	C268.491241,267.742035 268.391815,259.362152 266.045563,251.040329 
	C262.876434,239.800049 255.145737,233.062775 244.619400,228.990585 
	C243.009827,228.367889 241.473373,227.556198 239.736969,226.755325 
	C244.087997,214.497772 248.286545,202.669800 252.470398,190.883194 
	C262.949158,195.321152 271.986786,200.211487 279.271851,207.787674 
	C289.863586,218.802673 296.675568,231.926773 298.871582,246.958038 
	C301.663513,266.068298 300.800934,285.048370 292.992493,303.128815 
	C284.744019,322.228271 270.384186,333.660309 249.739319,337.019196 
	C248.473434,337.225128 247.262451,337.781677 245.995529,337.964203 
	C244.863495,338.127258 243.689407,337.998505 242.009903,337.998505 
	C242.009903,325.764771 241.970947,313.654968 242.093979,301.546814 
	C242.102554,300.703186 243.205994,299.262024 243.980957,299.125671 
	C256.619171,296.902435 263.684540,288.976593 266.987488,276.631561 
z"></path>
<path fill="#FFFFFF" opacity="1.000000" stroke="none" d="
M227.283295,243.723022 
	C237.818420,265.694183 237.336853,286.996155 224.999817,307.716095 
	C212.743118,328.301117 193.303436,337.683258 170.144928,341.962830 
	C169.774811,340.214996 169.073746,338.389191 169.052475,336.555542 
	C168.940475,326.893097 169.096069,317.227142 168.947739,307.565643 
	C168.896042,304.198700 169.941574,302.242798 173.329468,301.204803 
	C188.948471,296.419342 197.586075,285.973724 197.916641,269.434052 
	C198.030502,263.737183 196.968765,258.023834 196.884979,252.311523 
	C196.860886,250.668777 197.940613,248.379349 199.261597,247.458252 
	C204.534470,243.781586 210.101166,240.526215 215.560562,237.117249 
	C219.312790,234.774307 222.696350,233.857986 224.752121,239.211975 
	C225.320114,240.691208 226.266678,242.025085 227.283295,243.723022 
z"></path>
<path fill="#FFFFFF" opacity="1.000000" stroke="none" d="
M233.537354,1022.089233 
	C234.716629,1026.878418 232.563354,1028.115601 228.032761,1028.087402 
	C200.034668,1027.913208 172.033890,1028.146484 144.036194,1027.943359 
	C128.003067,1027.827026 112.990578,1030.357300 100.157639,1040.998657 
	C98.822029,1042.106201 95.834183,1041.221313 93.252251,1041.106445 
	C101.906754,1030.766602 113.730202,1025.666260 126.764351,1024.132080 
	C162.102737,1019.972473 197.633194,1022.711792 233.537354,1022.089233 
z"></path>
<path fill="#FFFFFF" opacity="1.000000" stroke="none" d="
M101.046234,1129.401367 
	C101.884514,1129.038330 103.178291,1128.637451 103.819649,1129.114258 
	C105.064430,1130.039673 106.795708,1131.504272 106.733513,1132.659912 
	C106.670982,1133.822021 104.731239,1135.751221 103.512604,1135.833008 
	C98.206825,1136.189209 92.864090,1135.998779 87.534782,1135.999268 
	C66.050781,1136.000977 44.566780,1136.000000 22.624706,1136.000244 
	C22.166636,1134.260742 22.166636,1132.521118 22.166636,1130.999634 
	C48.625813,1130.999634 74.512787,1131.002197 100.399742,1130.978149 
	C100.815903,1130.977661 101.231766,1130.652588 101.647766,1130.479004 
	C101.500816,1130.239380 101.353859,1129.999878 101.046234,1129.401367 
z"></path>
<path fill="#FFFFFF" opacity="1.000000" stroke="none" d="
M166.574219,1130.089355 
	C167.429626,1134.101074 165.025467,1135.324097 161.812714,1134.938965 
	C144.780197,1132.897339 129.145401,1128.026123 118.540176,1113.113525 
	C116.797256,1110.662598 116.147911,1108.757446 119.525055,1106.839233 
	C129.722641,1120.901123 143.481674,1127.875854 160.473648,1129.028931 
	C162.378586,1129.158203 164.257233,1129.674927 166.574219,1130.089355 
z"></path>
<path fill="#FFFFFF" opacity="1.000000" stroke="none" d="
M151.406372,1168.910645 
	C154.987564,1162.673462 155.894989,1162.483643 161.974838,1166.799927 
	C164.331696,1164.357544 166.930908,1162.679932 169.173645,1167.542480 
	C165.706696,1168.277710 162.127975,1168.712524 158.536362,1168.961670 
	C156.305344,1169.116211 154.054764,1168.988892 151.406372,1168.910645 
z"></path>
<path fill="#FFFFFF" opacity="1.000000" stroke="none" d="
M158.444305,1062.910767 
	C159.293579,1061.232422 160.708450,1058.248291 161.853699,1058.348511 
	C163.659637,1058.506348 165.284470,1060.736450 166.993164,1062.461426 
	C164.296585,1062.885010 161.592789,1062.936523 158.444305,1062.910767 
z"></path>
<path fill="#FFFFFF" opacity="1.000000" stroke="none" d="
M90.402527,1168.910645 
	C92.489174,1162.129517 96.251991,1161.917114 101.933578,1168.498413 
	C101.339302,1168.881226 100.468330,1169.225464 100.051392,1168.929810 
	C96.916351,1166.706177 93.873596,1166.793945 90.402527,1168.910645 
z"></path>
<path fill="#FEFEFE" opacity="1.000000" stroke="none" d="
M149.903320,408.572021 
	C146.528519,412.302765 143.807556,410.050903 141.079468,407.240784 
	C143.934769,407.327393 146.827377,407.769684 149.903320,408.572021 
z"></path>
<path fill="#FEFEFE" opacity="1.000000" stroke="none" d="
M153.950546,409.613312 
	C152.779602,409.833282 151.447250,409.711578 150.086395,409.246338 
	C151.301651,409.025757 152.545395,409.148712 153.950546,409.613312 
z"></path>
</svg>